<svg viewBox="0 0 1024 1024" xmlns="http://www.w3.org/2000/svg">
  <path d="M512 64C264.6 64 64 264.6 64 512s200.6 448 448 448 448-200.6 448-448S759.4 64 512 64zm0 820c-205.4 0-372-166.6-372-372s166.6-372 372-372 372 166.6 372 372-166.6 372-372 372z"/>
  <path d="M512 336c-97.2 0-176 78.8-176 176s78.8 176 176 176 176-78.8 176-176-78.8-176-176-176zm0 288c-61.9 0-112-50.1-112-112s50.1-112 112-112 112 50.1 112 112-50.1 112-112 112z"/>
  <path d="M512 288m-48 0a48 48 0 1 0 96 0 48 48 0 1 0-96 0"/>
  <path d="M512 736m-48 0a48 48 0 1 0 96 0 48 48 0 1 0-96 0"/>
  <path d="M736 512m-48 0a48 48 0 1 0 96 0 48 48 0 1 0-96 0"/>
  <path d="M288 512m-48 0a48 48 0 1 0 96 0 48 48 0 1 0-96 0"/>
</svg>