<svg viewBox="0 0 1024 1024" xmlns="http://www.w3.org/2000/svg">
  <path d="M908.1 353.1l-253.9-36.9L540.7 86.1c-3.1-6.3-8.2-11.4-14.5-14.5-15.8-7.8-35-1.3-42.9 14.5L369.8 316.2l-253.9 36.9c-7 1-13.4 4.3-18.3 9.8-12.3 12.7-12.1 32.9 0.6 45.3l183.7 179.1-43.4 252.9c-1.2 6.9 0.8 13.9 5.4 19.6 12.5 15.3 35.1 17.8 50.9 5.4l227.2-119.4 227.2 119.4c6.8 3.5 14.4 5.4 22.1 5.4 17.2 0 31.9-11.8 35.8-28.5 4.5-15.6 1.8-32.3-6.9-44.9l-43.4-252.9 183.7-179.1c5.4-5.2 8.2-12.4 7.9-19.6-0.3-7.2-3.7-14-9.8-18.3z"/>
</svg>